<svg width="465" height="177" viewBox="0 0 465 177" fill="none" xmlns="http://www.w3.org/2000/svg">
<g filter="url(#filter0_dddi_31_7365)">
<g clip-path="url(#clip0_31_7365)">
<rect x="51.279" y="51" width="360.442" height="82.8613" rx="14.7901" fill="#1B1F26"/>
<rect x="51.8455" y="51.5665" width="359.309" height="90.0982" fill="#1B1F26"/>
<g filter="url(#filter1_ddd_31_7365)">
<rect x="74.4351" y="66.8436" width="30.5989" height="30.5989" rx="7.29944" fill="#29855A"/>
<path d="M92.2001 90.5699L92.2099 90.5756C93.0713 91.124 94.094 91.3623 95.1091 91.2509C96.1243 91.1396 97.071 90.6854 97.7931 89.9633L98.4209 89.3355C98.7013 89.0548 98.8587 88.6742 98.8587 88.2775C98.8587 87.8807 98.7013 87.5002 98.4209 87.2195L95.7761 84.5763C95.4953 84.2959 95.1148 84.1384 94.718 84.1384C94.3213 84.1384 93.9408 84.2959 93.66 84.5763C93.5212 84.7153 93.3563 84.8255 93.1749 84.9008C92.9934 84.976 92.7989 85.0147 92.6024 85.0147C92.406 85.0147 92.2114 84.976 92.03 84.9008C91.8485 84.8255 91.6836 84.7153 91.5448 84.5763L87.3128 80.3434C87.0324 80.0627 86.8749 79.6821 86.8749 79.2854C86.8749 78.8886 87.0324 78.5081 87.3128 78.2274C87.4518 78.0885 87.562 77.9237 87.6373 77.7422C87.7125 77.5607 87.7512 77.3662 87.7512 77.1698C87.7512 76.9733 87.7125 76.7788 87.6373 76.5973C87.562 76.4158 87.4518 76.251 87.3128 76.1122L84.6687 73.4649C84.388 73.1845 84.0075 73.027 83.6107 73.027C83.214 73.027 82.8334 73.1845 82.5527 73.4649L81.925 74.0926C81.203 74.8148 80.7488 75.7615 80.6373 76.7765C80.5258 77.7916 80.7638 78.8143 81.3118 79.6759L81.3183 79.6856C84.2165 83.976 87.9105 87.6708 92.2001 90.5699Z" stroke="white" stroke-width="1.09492" stroke-linecap="round" stroke-linejoin="round"/>
</g>
<path d="M114.776 89.1431H117.491V74.6561H114.776V89.1431ZM120.706 89.1431H123.157V82.9025C123.157 81.2208 124.272 80.3698 125.65 80.3698C127.108 80.3698 127.757 81.0992 127.757 82.6999V89.1431H130.208V82.477C130.208 79.5594 128.709 78.3234 126.582 78.3234C124.839 78.3234 123.664 79.1947 123.157 80.228V78.5463H120.706V89.1431ZM137.673 89.3457C140.55 89.3457 142.394 87.6235 142.576 85.1921H140.327C140.185 86.6914 139.071 87.4614 137.774 87.4614C135.971 87.4614 134.836 86.2457 134.836 83.9359V83.7738C134.836 81.5855 136.032 80.2888 137.713 80.2888C139.01 80.2888 139.942 80.8764 140.145 82.2947H142.515C142.232 79.377 140.023 78.3234 137.673 78.3234C134.715 78.3234 132.324 80.4509 132.324 83.8143V83.9764C132.324 87.3601 134.634 89.3457 137.673 89.3457ZM149.428 87.4411C147.564 87.4411 146.49 86.0836 146.49 83.9156V83.7535C146.49 81.5653 147.605 80.2483 149.428 80.2483C151.252 80.2483 152.346 81.5855 152.346 83.7738V83.9156C152.346 86.0836 151.252 87.4411 149.428 87.4411ZM149.408 89.3457C152.528 89.3457 154.858 87.198 154.858 83.8953V83.7332C154.858 80.4914 152.528 78.3234 149.428 78.3234C146.308 78.3234 143.978 80.5117 143.978 83.794V83.9561C143.978 87.1777 146.288 89.3457 149.408 89.3457ZM157.074 89.1431H159.525V82.8012C159.525 81.1803 160.64 80.3698 161.855 80.3698C163.051 80.3698 163.74 81.0385 163.74 82.5986V89.1431H166.191V82.8012C166.191 81.1803 167.306 80.3698 168.521 80.3698C169.737 80.3698 170.406 81.0385 170.406 82.5986V89.1431H172.857V82.4365C172.857 79.5188 171.277 78.3234 169.332 78.3234C168.015 78.3234 166.556 78.911 165.746 80.228C165.219 78.911 164.125 78.3234 162.747 78.3234C161.187 78.3234 160.032 79.1744 159.525 80.1672V78.5463H157.074V89.1431ZM175.734 89.1431H178.186V78.5463H175.734V89.1431ZM176.929 76.8038C177.74 76.8038 178.388 76.1959 178.388 75.4057C178.388 74.5953 177.74 73.9874 176.929 73.9874C176.119 73.9874 175.47 74.5953 175.47 75.4057C175.47 76.1959 176.119 76.8038 176.929 76.8038ZM181.174 89.1431H183.625V82.9025C183.625 81.2208 184.74 80.3698 186.118 80.3698C187.576 80.3698 188.225 81.0992 188.225 82.6999V89.1431H190.676V82.477C190.676 79.5594 189.177 78.3234 187.05 78.3234C185.307 78.3234 184.132 79.1947 183.625 80.228V78.5463H181.174V89.1431ZM198.019 93.0333C201.302 93.0333 203.389 91.4731 203.409 88.3529V78.5463H200.957V80.1672C200.349 79.1136 199.296 78.3234 197.553 78.3234C194.818 78.3234 192.792 80.5522 192.792 83.5306V83.6725C192.792 86.7319 194.838 88.7176 197.492 88.7176C199.053 88.7176 200.37 87.7653 200.957 86.7522V88.3123C200.957 90.2169 199.904 91.1692 197.999 91.1692C196.398 91.1692 195.588 90.5614 195.385 89.5078H192.913C193.197 91.5339 194.696 93.0333 198.019 93.0333ZM198.1 86.8333C196.52 86.8333 195.304 85.6176 195.304 83.6522V83.4901C195.304 81.5653 196.358 80.2483 198.181 80.2483C199.944 80.2483 201.038 81.4437 201.038 83.4496V83.5914C201.038 85.6176 199.802 86.8333 198.1 86.8333ZM217.695 89.3457C221.14 89.3457 223.611 87.5829 224.037 84.0979H221.403C221.119 86.1444 219.701 87.1574 217.695 87.1574C215.021 87.1574 213.46 85.2326 213.46 81.9705V81.8084C213.46 78.5665 215.122 76.5809 217.675 76.5809C219.762 76.5809 220.836 77.5737 221.14 79.4986H223.875C223.551 76.0946 220.977 74.4332 217.655 74.4332C213.622 74.4332 210.624 77.4724 210.624 81.8287V81.9907C210.624 86.4483 213.156 89.3457 217.695 89.3457ZM229.043 89.3457C230.664 89.3457 231.596 88.7581 232.285 87.8463V89.1431H234.696V82.1934C234.696 79.296 232.832 78.3234 230.462 78.3234C228.091 78.3234 226.126 79.3567 225.923 81.8287H228.294C228.415 80.7751 229.043 80.1672 230.32 80.1672C231.758 80.1672 232.245 80.8764 232.245 82.2947V82.8417H230.928C227.888 82.8417 225.498 83.7332 225.498 86.2051C225.498 88.4137 227.098 89.3457 229.043 89.3457ZM229.631 87.5829C228.415 87.5829 227.929 86.9953 227.929 86.1038C227.929 84.8071 229.124 84.3816 230.989 84.3816H232.245V85.4352C232.245 86.7927 231.13 87.5829 229.631 87.5829ZM237.567 89.1431H240.019V73.643H237.567V89.1431ZM243.068 89.1431H245.52V73.643H243.068V89.1431ZM249.967 89.2849C250.878 89.2849 251.588 88.596 251.588 87.7045C251.588 86.813 250.878 86.1038 249.967 86.1038C249.075 86.1038 248.366 86.813 248.366 87.7045C248.366 88.596 249.075 89.2849 249.967 89.2849ZM255.823 89.2849C256.735 89.2849 257.444 88.596 257.444 87.7045C257.444 86.813 256.735 86.1038 255.823 86.1038C254.932 86.1038 254.223 86.813 254.223 87.7045C254.223 88.596 254.932 89.2849 255.823 89.2849ZM261.68 89.2849C262.592 89.2849 263.301 88.596 263.301 87.7045C263.301 86.813 262.592 86.1038 261.68 86.1038C260.789 86.1038 260.08 86.813 260.08 87.7045C260.08 88.596 260.789 89.2849 261.68 89.2849Z" fill="white"/>
<path d="M79.9242 120.525L79.924 120.525C78.9021 118.984 77.8608 117.298 77.0767 115.723C76.2819 114.127 75.7933 112.726 75.7933 111.732C75.7933 109.284 77.7778 107.299 80.2255 107.299C82.6733 107.299 84.6577 109.284 84.6577 111.732C84.6577 112.731 84.2164 114.035 83.4881 115.516C82.7678 116.982 81.8025 118.552 80.8251 120.069C80.8248 120.069 80.8245 120.07 80.8242 120.07L80.5271 120.525C80.5268 120.525 80.5265 120.526 80.5262 120.526C80.4157 120.691 80.1924 120.737 80.0252 120.626C79.9852 120.6 79.9505 120.565 79.9242 120.525Z" stroke="#9EA9B8" stroke-width="1.08544"/>
<circle cx="80.2254" cy="111.822" r="1.44716" fill="#9EA9B8"/>
<path d="M94.8758 119.076V109.108H96.5604C99.9818 109.108 101.371 111.122 101.371 113.988V114.127C101.371 117.166 99.7733 119.076 96.5778 119.076H94.8758ZM93.3649 120.31H96.6125C100.954 120.31 102.934 117.583 102.934 114.144V113.988C102.934 110.532 100.92 107.892 96.6473 107.892H93.3649V120.31ZM105.353 120.31H106.795V115.325C106.795 113.085 107.958 112.512 109.782 112.425V111.07C108.149 111.122 107.368 111.834 106.795 112.859V111.227H105.353V120.31ZM115.345 120.466C117.394 120.466 118.905 119.511 119.218 117.687H117.776C117.585 118.746 116.769 119.267 115.362 119.267C113.504 119.267 112.514 118.121 112.445 116.055H119.287V115.586C119.287 112.338 117.307 111.07 115.206 111.07C112.705 111.07 110.951 112.981 110.951 115.725V115.864C110.951 118.66 112.775 120.466 115.345 120.466ZM112.497 114.891C112.74 113.276 113.73 112.269 115.206 112.269C116.7 112.269 117.672 113.015 117.811 114.891H112.497ZM123.859 120.466C125.196 120.466 126.012 120.014 126.69 119.163V120.31H128.131V114.318C128.131 111.782 126.551 111.07 124.814 111.07C123.06 111.07 121.41 111.834 121.219 113.901H122.661C122.8 112.79 123.494 112.269 124.745 112.269C126.134 112.269 126.69 112.876 126.69 114.318V114.978H125.387C123.06 114.978 120.837 115.69 120.837 117.791C120.837 119.65 122.174 120.466 123.859 120.466ZM123.998 119.32C122.73 119.32 122.279 118.729 122.279 117.791C122.279 116.454 123.616 116.002 125.439 116.002H126.69V117.131C126.69 118.538 125.526 119.32 123.998 119.32ZM130.963 120.31H132.404V114.752C132.404 113.12 133.62 112.321 134.801 112.321C136.051 112.321 136.729 112.981 136.729 114.578V120.31H138.17V114.752C138.17 113.12 139.386 112.321 140.567 112.321C141.817 112.321 142.494 112.981 142.494 114.578V120.31H143.936V114.683C143.936 112.043 142.512 111.07 140.879 111.07C139.75 111.07 138.396 111.591 137.771 112.772C137.302 111.557 136.277 111.07 135.113 111.07C133.811 111.07 132.821 111.765 132.404 112.616V111.227H130.963V120.31ZM156.663 120.466C159.441 120.466 161.421 119.059 161.855 116.194H160.449C160.136 118.208 158.729 119.233 156.697 119.233C154.023 119.233 152.425 117.322 152.425 114.162V114.023C152.425 110.897 154.144 108.899 156.715 108.899C158.833 108.899 159.928 109.872 160.24 111.765H161.734C161.473 109.073 159.285 107.701 156.697 107.701C153.328 107.701 150.862 110.358 150.862 114.04V114.179C150.862 118 153.068 120.466 156.663 120.466ZM164.086 120.31H165.545V106.885H164.086V120.31ZM172.212 120.466C174.261 120.466 175.772 119.511 176.085 117.687H174.643C174.452 118.746 173.636 119.267 172.229 119.267C170.371 119.267 169.381 118.121 169.311 116.055H176.154V115.586C176.154 112.338 174.174 111.07 172.073 111.07C169.572 111.07 167.818 112.981 167.818 115.725V115.864C167.818 118.66 169.641 120.466 172.212 120.466ZM169.364 114.891C169.607 113.276 170.597 112.269 172.073 112.269C173.566 112.269 174.539 113.015 174.678 114.891H169.364ZM180.726 120.466C182.063 120.466 182.879 120.014 183.557 119.163V120.31H184.998V114.318C184.998 111.782 183.418 111.07 181.681 111.07C179.927 111.07 178.277 111.834 178.086 113.901H179.527C179.666 112.79 180.361 112.269 181.612 112.269C183.001 112.269 183.557 112.876 183.557 114.318V114.978H182.254C179.927 114.978 177.704 115.69 177.704 117.791C177.704 119.65 179.041 120.466 180.726 120.466ZM180.865 119.32C179.597 119.32 179.145 118.729 179.145 117.791C179.145 116.454 180.483 116.002 182.306 116.002H183.557V117.131C183.557 118.538 182.393 119.32 180.865 119.32ZM187.83 120.31H189.271V114.804C189.271 113.172 190.469 112.321 191.807 112.321C193.265 112.321 193.943 113.033 193.943 114.63V120.31H195.384V114.735C195.384 112.095 194.064 111.07 192.189 111.07C190.695 111.07 189.688 111.817 189.271 112.668V111.227H187.83V120.31ZM201.926 120.466C203.975 120.466 205.486 119.511 205.799 117.687H204.357C204.166 118.746 203.35 119.267 201.943 119.267C200.085 119.267 199.095 118.121 199.025 116.055H205.868V115.586C205.868 112.338 203.888 111.07 201.787 111.07C199.286 111.07 197.532 112.981 197.532 115.725V115.864C197.532 118.66 199.355 120.466 201.926 120.466ZM199.077 114.891C199.321 113.276 200.311 112.269 201.787 112.269C203.28 112.269 204.253 113.015 204.392 114.891H199.077ZM208.08 120.31H209.521V115.325C209.521 113.085 210.685 112.512 212.508 112.425V111.07C210.876 111.122 210.094 111.834 209.521 112.859V111.227H208.08V120.31ZM217.338 120.466C219.544 120.466 220.673 119.354 220.673 117.704C220.673 115.777 219.353 115.36 217.477 115.013C215.81 114.717 215.358 114.387 215.358 113.571C215.358 112.79 216.036 112.269 217.078 112.269C218.224 112.269 218.78 112.703 218.988 113.693H220.377C220.134 111.73 218.727 111.07 217.095 111.07C215.671 111.07 214.021 111.939 214.021 113.623C214.021 115.204 214.82 115.864 217.182 116.298C218.589 116.558 219.301 116.871 219.301 117.826C219.301 118.799 218.693 119.267 217.321 119.267C215.862 119.267 215.289 118.59 215.185 117.513H213.778C213.865 119.372 215.167 120.466 217.338 120.466Z" fill="#9EA9B8"/>
<path d="M229.534 117.01C230.697 117.01 231.548 116.107 231.548 114.995C231.548 113.884 230.697 112.981 229.534 112.981C228.388 112.981 227.519 113.884 227.519 114.995C227.519 116.107 228.388 117.01 229.534 117.01Z" fill="#9EA9B8"/>
<path d="M241.795 120.31H243.167L246.068 110.497L248.881 120.31H250.27L253.501 107.892H252.094L249.541 117.948L246.623 107.892H245.547L242.629 117.913L240.111 107.892H238.565L241.795 120.31ZM258.566 120.466C260.616 120.466 262.127 119.511 262.439 117.687H260.998C260.807 118.746 259.991 119.267 258.584 119.267C256.726 119.267 255.736 118.121 255.666 116.055H262.509V115.586C262.509 112.338 260.529 111.07 258.428 111.07C255.927 111.07 254.173 112.981 254.173 115.725V115.864C254.173 118.66 255.996 120.466 258.566 120.466ZM255.718 114.891C255.961 113.276 256.951 112.269 258.428 112.269C259.921 112.269 260.894 113.015 261.033 114.891H255.718ZM269.236 120.466C271.737 120.466 273.369 118.555 273.369 115.777V115.638C273.369 112.807 271.615 111.07 269.236 111.07C267.916 111.07 266.683 111.869 266.162 112.755V106.885H264.721V120.31H266.162V118.816C266.683 119.719 267.76 120.466 269.236 120.466ZM269.097 119.267C267.326 119.267 266.11 118.173 266.11 115.846V115.707C266.11 113.38 267.395 112.269 269.08 112.269C270.608 112.269 271.876 113.415 271.876 115.707V115.846C271.876 118.052 270.903 119.267 269.097 119.267ZM280.205 123.47H281.647V118.816C282.168 119.719 283.227 120.466 284.721 120.466C287.221 120.466 288.854 118.555 288.854 115.777V115.638C288.854 112.807 287.1 111.07 284.721 111.07C283.401 111.07 282.168 111.869 281.647 112.755V111.227H280.205V123.47ZM284.582 119.267C282.81 119.267 281.594 118.173 281.594 115.846V115.707C281.594 113.38 282.88 112.269 284.564 112.269C286.093 112.269 287.36 113.415 287.36 115.707V115.846C287.36 118.052 286.388 119.267 284.582 119.267ZM291.093 120.31H292.535V114.804C292.535 113.172 293.733 112.321 295.07 112.321C296.529 112.321 297.207 113.033 297.207 114.63V120.31H298.648V114.735C298.648 112.095 297.328 111.07 295.453 111.07C293.959 111.07 292.952 111.817 292.535 112.668V106.885H291.093V120.31ZM305.259 119.267C303.418 119.267 302.289 117.913 302.289 115.846V115.707C302.289 113.623 303.435 112.269 305.259 112.269C307.065 112.269 308.229 113.623 308.229 115.725V115.846C308.229 117.895 307.083 119.267 305.259 119.267ZM305.242 120.466C307.829 120.466 309.722 118.573 309.722 115.829V115.69C309.722 112.963 307.829 111.07 305.259 111.07C302.689 111.07 300.796 112.981 300.796 115.707V115.846C300.796 118.503 302.654 120.466 305.242 120.466ZM311.954 120.31H313.396V114.804C313.396 113.172 314.594 112.321 315.931 112.321C317.39 112.321 318.067 113.033 318.067 114.63V120.31H319.509V114.735C319.509 112.095 318.189 111.07 316.313 111.07C314.82 111.07 313.813 111.817 313.396 112.668V111.227H311.954V120.31ZM326.05 120.466C328.1 120.466 329.611 119.511 329.923 117.687H328.482C328.291 118.746 327.474 119.267 326.068 119.267C324.209 119.267 323.219 118.121 323.15 116.055H329.993V115.586C329.993 112.338 328.013 111.07 325.911 111.07C323.411 111.07 321.656 112.981 321.656 115.725V115.864C321.656 118.66 323.48 120.466 326.05 120.466ZM323.202 114.891C323.445 113.276 324.435 112.269 325.911 112.269C327.405 112.269 328.377 113.015 328.516 114.891H323.202Z" fill="#9EA9B8"/>
<rect x="51.8455" y="51.5665" width="359.309" height="90.0982" stroke="black" stroke-width="1.13293"/>
</g>
<rect x="50.1461" y="49.8671" width="362.708" height="85.1271" rx="15.923" stroke="white" stroke-width="2.26587"/>
</g>
<g clip-path="url(#clip1_31_7365)">
<path d="M57.5245 37.2818C52.2277 37.556 47.2567 39.923 43.7049 43.8622C40.1531 47.8013 38.3115 52.99 38.5852 58.2868" stroke="#1E47F6" stroke-width="2" stroke-linecap="round" stroke-linejoin="round"/>
<path d="M56.9101 25.2918C48.4349 25.7304 40.481 29.5176 34.798 35.8204C29.115 42.1232 26.1685 50.4254 26.6065 58.9006" stroke="#1E47F6" stroke-width="2" stroke-linecap="round" stroke-linejoin="round"/>
<path d="M54.7496 13.4158C43.657 14.3812 33.343 19.5163 25.8869 27.7857C18.4307 36.055 14.387 46.8437 14.5709 57.9766" stroke="#1E47F6" stroke-width="2" stroke-linecap="round" stroke-linejoin="round"/>
</g>
<g clip-path="url(#clip2_31_7365)">
<path d="M406.525 37.2818C411.822 37.556 416.793 39.923 420.345 43.8622C423.897 47.8013 425.738 52.99 425.465 58.2868" stroke="#1E47F6" stroke-width="2" stroke-linecap="round" stroke-linejoin="round"/>
<path d="M407.14 25.2918C415.615 25.7304 423.569 29.5176 429.252 35.8204C434.935 42.1232 437.881 50.4254 437.443 58.9006" stroke="#1E47F6" stroke-width="2" stroke-linecap="round" stroke-linejoin="round"/>
<path d="M409.3 13.4158C420.393 14.3812 430.707 19.5163 438.163 27.7857C445.619 36.055 449.663 46.8437 449.479 57.9766" stroke="#1E47F6" stroke-width="2" stroke-linecap="round" stroke-linejoin="round"/>
</g>
<defs>
<filter id="filter0_dddi_31_7365" x="23.1305" y="37.6416" width="416.739" height="139.158" filterUnits="userSpaceOnUse" color-interpolation-filters="sRGB">
<feFlood flood-opacity="0" result="BackgroundImageFix"/>
<feColorMatrix in="SourceAlpha" type="matrix" values="0 0 0 0 0 0 0 0 0 0 0 0 0 0 0 0 0 0 127 0" result="hardAlpha"/>
<feMorphology radius="3.69752" operator="erode" in="SourceAlpha" result="effect1_dropShadow_31_7365"/>
<feOffset dy="14.7901"/>
<feGaussianBlur stdDeviation="14.7901"/>
<feColorMatrix type="matrix" values="0 0 0 0 0.0705882 0 0 0 0 0.0823529 0 0 0 0 0.101961 0 0 0 0.08 0"/>
<feBlend mode="normal" in2="BackgroundImageFix" result="effect1_dropShadow_31_7365"/>
<feColorMatrix in="SourceAlpha" type="matrix" values="0 0 0 0 0 0 0 0 0 0 0 0 0 0 0 0 0 0 127 0" result="hardAlpha"/>
<feMorphology radius="1.84876" operator="erode" in="SourceAlpha" result="effect2_dropShadow_31_7365"/>
<feOffset dy="7.39503"/>
<feGaussianBlur stdDeviation="7.39503"/>
<feColorMatrix type="matrix" values="0 0 0 0 0.0705882 0 0 0 0 0.0823529 0 0 0 0 0.101961 0 0 0 0.08 0"/>
<feBlend mode="normal" in2="effect1_dropShadow_31_7365" result="effect2_dropShadow_31_7365"/>
<feColorMatrix in="SourceAlpha" type="matrix" values="0 0 0 0 0 0 0 0 0 0 0 0 0 0 0 0 0 0 127 0" result="hardAlpha"/>
<feOffset dy="3.69752"/>
<feGaussianBlur stdDeviation="3.69752"/>
<feColorMatrix type="matrix" values="0 0 0 0 0.0705882 0 0 0 0 0.0823529 0 0 0 0 0.101961 0 0 0 0.08 0"/>
<feBlend mode="normal" in2="effect2_dropShadow_31_7365" result="effect3_dropShadow_31_7365"/>
<feBlend mode="normal" in="SourceGraphic" in2="effect3_dropShadow_31_7365" result="shape"/>
<feColorMatrix in="SourceAlpha" type="matrix" values="0 0 0 0 0 0 0 0 0 0 0 0 0 0 0 0 0 0 127 0" result="hardAlpha"/>
<feMorphology radius="0.924379" operator="erode" in="SourceAlpha" result="effect4_innerShadow_31_7365"/>
<feOffset/>
<feComposite in2="hardAlpha" operator="arithmetic" k2="-1" k3="1"/>
<feColorMatrix type="matrix" values="0 0 0 0 0.0705882 0 0 0 0 0.0823529 0 0 0 0 0.101961 0 0 0 0.24 0"/>
<feBlend mode="normal" in2="shape" result="effect4_innerShadow_31_7365"/>
</filter>
<filter id="filter1_ddd_31_7365" x="71.5153" y="66.1137" width="36.4384" height="37.1684" filterUnits="userSpaceOnUse" color-interpolation-filters="sRGB">
<feFlood flood-opacity="0" result="BackgroundImageFix"/>
<feColorMatrix in="SourceAlpha" type="matrix" values="0 0 0 0 0 0 0 0 0 0 0 0 0 0 0 0 0 0 127 0" result="hardAlpha"/>
<feMorphology radius="5.83956" operator="erode" in="SourceAlpha" result="effect1_dropShadow_31_7365"/>
<feOffset dy="2.91978"/>
<feGaussianBlur stdDeviation="2.91978"/>
<feColorMatrix type="matrix" values="0 0 0 0 0.0705882 0 0 0 0 0.0823529 0 0 0 0 0.101961 0 0 0 0.24 0"/>
<feBlend mode="normal" in2="BackgroundImageFix" result="effect1_dropShadow_31_7365"/>
<feColorMatrix in="SourceAlpha" type="matrix" values="0 0 0 0 0 0 0 0 0 0 0 0 0 0 0 0 0 0 127 0" result="hardAlpha"/>
<feMorphology radius="5.83956" operator="erode" in="SourceAlpha" result="effect2_dropShadow_31_7365"/>
<feOffset dy="2.91978"/>
<feGaussianBlur stdDeviation="4.37967"/>
<feColorMatrix type="matrix" values="0 0 0 0 0.0705882 0 0 0 0 0.0823529 0 0 0 0 0.101961 0 0 0 0.12 0"/>
<feBlend mode="normal" in2="effect1_dropShadow_31_7365" result="effect2_dropShadow_31_7365"/>
<feColorMatrix in="SourceAlpha" type="matrix" values="0 0 0 0 0 0 0 0 0 0 0 0 0 0 0 0 0 0 127 0" result="hardAlpha"/>
<feMorphology radius="0.729944" operator="dilate" in="SourceAlpha" result="effect3_dropShadow_31_7365"/>
<feOffset/>
<feColorMatrix type="matrix" values="0 0 0 0 0.0705882 0 0 0 0 0.0823529 0 0 0 0 0.101961 0 0 0 0.24 0"/>
<feBlend mode="normal" in2="effect2_dropShadow_31_7365" result="effect3_dropShadow_31_7365"/>
<feBlend mode="normal" in="SourceGraphic" in2="effect3_dropShadow_31_7365" result="shape"/>
</filter>
<clipPath id="clip0_31_7365">
<rect x="51.279" y="51" width="360.442" height="82.8613" rx="14.7901" fill="white"/>
</clipPath>
<clipPath id="clip1_31_7365">
<rect width="64" height="42" fill="white" transform="translate(0 47.5316) rotate(-47.9603)"/>
</clipPath>
<clipPath id="clip2_31_7365">
<rect width="64" height="42" fill="white" transform="matrix(-0.669645 -0.742682 -0.742682 0.669645 464.05 47.5316)"/>
</clipPath>
</defs>
</svg>
